<?xml version="1.0" encoding="utf-8"?>
<svg viewBox="53.691 99.879 734.138 362.638" stroke-miterlimit="10" style="fill-rule:nonzero;clip-rule:evenodd;stroke-linecap:round;stroke-linejoin:round;" xmlns="http://www.w3.org/2000/svg">
  <g id="Ebene-2">
    <path d="M228.449 291.742L228.449 443.234L257.949 443.234L257.949 378.318L297.168 378.318L297.168 444.99L325.23 444.99L325.23 293.16L297.168 293.16L297.168 353.485L257.949 353.485L257.949 291.742L228.449 291.742Z" fill="#cc020d" fill-rule="nonzero" opacity="1" stroke="#cc020d" stroke-linecap="butt" stroke-linejoin="round" stroke-width="0.527367"/>
    <path d="M458.73 295.709L458.73 444.99L477.074 444.99L489.293 444.99L561.262 444.99L561.262 421.772L489.293 421.772L489.293 295.709L458.73 295.709Z" fill="#cc020d" fill-rule="nonzero" opacity="1" stroke="#cc020d" stroke-linecap="butt" stroke-linejoin="round" stroke-width="0.527367"/>
    <path d="M577.293 293.178L577.293 444.99L603.012 444.99L607.699 444.99L680.73 444.99L680.73 421.74L607.699 421.74L607.699 293.178L577.293 293.178Z" fill="#cc020d" fill-rule="nonzero" opacity="1" stroke="#cc020d" stroke-linecap="butt" stroke-linejoin="round" stroke-width="0.527367"/>
    <path d="M615.637 298.978L615.492 330.484C633.457 332.641 670.787 311.273 641.18 263.364C636.85 283.726 636.083 294.336 615.637 298.978Z" fill="#cc020d" fill-rule="nonzero" opacity="1" stroke="#cc020d" stroke-linecap="butt" stroke-linejoin="round" stroke-width="0.1"/>
    <path d="M370.887 293.865L370.887 293.897L351.48 293.897L351.48 444.99L375.23 444.99L383.512 444.99L434.605 444.99L434.605 421.272L383.512 421.272L383.512 380.99L414.449 380.99L414.449 360.115L383.512 360.115L383.512 314.459L436.199 314.459L436.199 293.865L370.887 293.865Z" fill="#cc020d" fill-rule="nonzero" opacity="1" stroke="#cc020d" stroke-linecap="butt" stroke-linejoin="round" stroke-width="0.527367"/>
    <path d="M220.158 298.663L219.523 331.055C200.712 325.961 171.058 306.758 195.225 264.172C200.32 281.023 201.59 290.7 220.158 298.663Z" fill="#cc020d" fill-rule="nonzero" opacity="1" stroke="#cc020d" stroke-linecap="butt" stroke-linejoin="round" stroke-width="0.1"/>
    <path d="M220.784 422.887L221.334 442.709C204.816 441.424 198.208 446.563 184.81 418.482C175.324 406.004 175.324 403.804 148.009 404.904L147.642 417.737L120.694 390.788L147.826 369.889L147.826 385.288C165.792 385.288 185.591 381.072 196.773 402.521C203.556 414.254 202.08 422.354 220.784 422.887Z" fill="#cc020d" fill-rule="nonzero" opacity="1" stroke="#cc020d" stroke-linecap="butt" stroke-linejoin="round" stroke-width="0.596779"/>
  </g>
  <g id="Ebene-3">
    <path d="M180.486 132.937C160.05 173.658 155.759 258.495 168.461 273.011C183.894 284.303 197.714 212.791 230.718 191.186C235.782 190.755 230.07 205.557 228.224 214.671C223.515 236.546 218.072 276.883 218.244 281.532C225.934 280.671 240.79 278.786 239.584 279.245C244.095 229.913 255.268 208.86 256.085 179.11C255.206 169.403 247.004 164.197 225.53 182.879C209.791 198.322 190.386 219.308 181.707 244.361C182.339 234.391 182.946 193.69 207.455 135.32C211.362 127.032 203.429 129.756 198.575 129.045C190.879 130.229 181.177 131.56 180.486 132.937Z" fill="#ffffff" fill-rule="nonzero" opacity="1" stroke="none"/>
    <path d="M311.534 178.908C309.835 179.048 308.105 179.346 306.378 179.783C245.182 201.89 261.571 267.521 292.815 278.502C307.758 282.124 341.471 259.682 342.409 255.627C343.306 254.546 338.892 241.435 337.128 244.283C313.469 279.489 287.919 262.507 285.315 247.564C356.443 207.421 337.012 176.818 311.534 178.908ZM319.097 186.658C322.385 187.094 325.97 189.013 327.097 195.002C327.486 210.225 301.59 224.817 283.923 232.862C279.886 206.283 301.194 190.367 312.815 187.283C312.815 187.283 315.808 186.223 319.097 186.658Z" fill="#ffffff" fill-rule="nonzero" opacity="1" stroke="none"/>
    <path d="M559.554 180.522C557.856 180.661 556.125 180.96 554.398 181.397C493.202 203.504 509.592 269.135 540.836 280.116C555.778 283.738 589.491 261.296 590.429 257.241C591.326 256.16 586.912 243.049 585.148 245.897C561.489 281.103 535.939 264.121 533.336 249.178C604.463 209.035 585.033 178.432 559.554 180.522ZM567.117 188.272C570.406 188.707 573.99 190.627 575.117 196.616C575.506 211.838 549.61 226.431 531.943 234.476C527.907 207.897 549.214 191.98 560.836 188.897C560.836 188.897 563.828 187.837 567.117 188.272Z" fill="#ffffff" fill-rule="nonzero" opacity="1" stroke="none"/>
    <path d="M404.088 170.195C391.662 170.906 374.418 180.954 358.306 193.07C355.39 195.263 360.916 217.032 363.931 214.945C376.753 203.614 387.227 189.886 402.556 189.32C414.301 190.901 413.074 208.83 411.65 222.258C384.152 210.095 358.662 239.864 356.588 253.758C352.806 288.52 386.696 278.954 399.056 272.039C398.534 274.077 398.341 274.282 398.119 274.914C397.961 275.366 397.874 276.01 397.213 277.852C396.563 279.62 414.631 282.645 418.463 276.008C421.769 263.839 434.268 186.864 414.681 172.852C411.83 170.745 408.229 169.958 404.088 170.195ZM400.525 232.633C403.837 232.383 406.859 232.87 409.15 234.195C410.587 235.026 407.87 245.013 404.994 254.445C385.956 269.925 371.691 263.069 374.244 251.883C377.974 240.735 390.589 233.381 400.525 232.633Z" fill="#ffffff" fill-rule="nonzero" opacity="1" stroke="none"/>
    <path d="M442.447 174.571C442.512 198.062 446.587 274.228 454.323 279.354C465.799 283.262 477.971 278.689 477.346 276.974C484.896 253.308 518.648 175.317 517.425 174.723C516.165 171.16 511.043 171.785 509.058 171.773C505.37 176.125 476.846 228.171 472.623 249.168C471.01 231.154 466.628 183.06 462.448 169.683C465.273 165.536 442.444 173.79 442.447 174.571Z" fill="#ffffff" fill-rule="nonzero" opacity="1" stroke="none"/>
    <path d="M616.982 176.552C611.854 176.722 601.264 179.709 600.732 182.177C600.023 185.468 600.152 265.376 600.669 279.333C601.974 280.574 608.367 277.166 616.638 275.271C618.017 256.661 616.727 231.915 618.794 218.302C630.033 206.547 647.996 195.311 656.763 205.802C663.246 213.677 662.013 241.253 663.482 270.427C664.176 271.804 681.884 267.543 683.044 265.833C681.754 242.741 686.759 198.32 665.857 184.833C653.56 177.704 636.465 187.916 618.544 204.458C619.234 191.19 619.361 180.221 619.701 177.458C619.786 176.768 618.691 176.496 616.982 176.552Z" fill="#ffffff" fill-rule="nonzero" opacity="1" stroke="none"/>
    <path d="M420.874 113.092C386.255 113.092 356.436 123.097 356.436 135.842C356.436 148.587 385.067 157.217 419.686 157.217C454.305 157.217 485.874 145.056 485.874 132.311C485.874 119.565 455.493 113.092 420.874 113.092ZM420.093 122.811C446.554 122.811 470.499 128.355 470.499 130.186C470.499 132.017 447.804 138.154 421.343 138.154C394.881 138.154 372.062 134.017 372.061 132.186C372.061 130.355 393.631 122.811 420.093 122.811Z" fill="#ffffff" fill-rule="nonzero" opacity="1" stroke="none"/>
    <path d="M693.889 141.372C693.178 141.359 692.463 141.374 691.75 141.413C689.571 141.533 687.407 141.916 685.314 142.532C682.577 143.338 679.975 144.563 677.586 146.12C674.447 148.167 671.704 150.776 669.381 153.708C664.62 159.719 661.614 166.92 659.571 174.258C659.4 174.765 659.673 175.313 660.18 175.484C660.687 175.656 661.235 175.382 661.406 174.875C664.009 168.362 667.424 162.024 672.319 156.934C674.565 154.599 677.133 152.545 679.998 151.017C682.025 149.936 684.197 149.127 686.45 148.672C690.033 147.948 693.727 148.168 697.255 149.075C698.362 149.359 699.435 149.733 700.506 150.128C701.753 150.588 702.966 151.098 704.152 151.7C707.581 153.44 710.689 155.779 713.468 158.424C718.254 162.977 722.049 168.495 725.039 174.365C728.646 181.446 731.195 189.042 733.277 196.693C736.094 207.039 737.91 217.616 739.368 228.229C740.144 233.883 740.769 239.558 741.516 245.216C741.991 248.819 742.506 252.416 743.079 256.005C743.681 259.769 744.379 263.52 745.054 267.272C745.845 271.666 746.608 276.064 747.54 280.431C747.815 281.719 748.089 283.012 748.404 284.291C749.345 288.108 750.435 291.887 751.605 295.64C754.302 304.286 757.681 312.749 762.098 320.667C763.817 323.748 765.714 326.73 767.752 329.613C766.555 328.194 765.366 326.773 764.213 325.317C762.876 323.626 761.522 321.957 760.23 320.231C758.855 318.394 757.562 316.497 756.247 314.618C753.869 311.221 751.522 307.805 749.334 304.281C746.509 299.731 743.917 295.031 741.474 290.266C739.892 287.179 738.383 284.051 737.006 280.867C736.084 278.738 735.25 276.58 734.397 274.424C733.428 271.977 732.433 269.54 731.557 267.058C731.553 267.044 731.546 267.031 731.541 267.017C731.495 266.778 731.455 266.538 731.401 266.301C731.036 264.707 730.544 263.134 730.101 261.56C729.419 259.141 728.747 256.717 728.027 254.31C727.983 254.09 727.93 253.872 727.887 253.651C727.861 253.474 727.694 253.346 727.517 253.372C727.339 253.397 727.219 253.565 727.245 253.742C727.409 255.41 727.639 257.069 727.895 258.721C728.04 259.991 728.187 261.262 728.34 262.531C728.51 263.956 728.657 265.389 728.907 266.803C729.034 267.514 729.197 268.219 729.344 268.926C729.683 270.563 730.042 272.204 730.389 273.839C730.816 275.848 731.261 277.849 731.738 279.847C732.198 281.768 732.696 283.682 733.17 285.6C733.71 287.779 734.193 289.97 734.792 292.134C735.191 293.577 735.659 295 736.076 296.438C736.365 297.439 736.627 298.454 736.931 299.45C737.221 300.399 737.55 301.331 737.861 302.273C738.517 304.26 739.19 306.247 739.944 308.199C740.29 309.096 740.691 309.972 741.088 310.849C738.246 307.143 735.437 303.415 732.71 299.623C731.122 297.416 729.596 295.167 728.035 292.941C726.907 291.33 725.755 289.739 724.653 288.11C723.477 286.372 722.37 284.592 721.213 282.843C718.974 279.459 716.715 276.091 714.571 272.646C712.092 268.662 709.749 264.585 707.444 260.499C705.808 257.598 704.223 254.67 702.728 251.693C701.812 249.867 700.951 248.022 700.07 246.179C699.011 243.963 697.899 241.77 696.893 239.529C695.135 235.612 693.606 231.599 692.474 227.456C692.435 227.281 692.261 227.17 692.087 227.209C691.912 227.247 691.802 227.421 691.84 227.596C692.591 232.063 693.781 236.433 695.256 240.714C696.013 242.915 696.804 245.124 697.757 247.249C698.585 249.095 699.495 250.906 700.424 252.705C700.345 252.975 700.279 253.249 700.202 253.52C699.992 254.261 699.797 255.012 699.642 255.766C699.558 256.174 699.544 256.591 699.478 257.001C699.394 257.522 699.253 258.029 699.206 258.556C699.13 259.417 699.13 260.287 699.05 261.149C698.994 261.736 698.936 262.32 698.91 262.91C698.88 263.585 698.888 264.259 698.877 264.935C698.875 265.062 698.89 265.192 698.885 265.321C698.683 264.587 698.487 263.85 698.26 263.124C698.165 262.821 698.048 262.528 697.947 262.227C697.658 261.364 697.466 260.472 697.148 259.618C696.768 258.594 696.283 257.608 695.832 256.614C695.417 255.702 695.009 254.78 694.548 253.89C694.096 253.019 693.599 252.175 693.099 251.331C692.712 250.675 692.329 250.021 691.931 249.372C691.806 249.168 691.625 248.866 691.486 248.672C691.049 248.064 690.521 247.517 690.021 246.961C689.219 246.065 688.396 245.183 687.577 244.302C687.528 244.227 687.452 244.18 687.371 244.162C687.29 244.145 687.207 244.163 687.133 244.212C686.983 244.309 686.936 244.506 687.034 244.656C687.506 245.758 687.97 246.863 688.441 247.965C688.733 248.647 688.993 249.36 689.347 250.014C689.775 250.806 690.31 251.546 690.787 252.31C691.356 253.222 691.898 254.158 692.457 255.075C693.043 256.035 693.653 256.976 694.178 257.972C694.593 258.761 694.941 259.578 695.321 260.383C695.635 261.046 696.003 261.685 696.309 262.35C696.505 262.775 696.654 263.212 696.836 263.642C697.171 264.439 697.563 265.218 697.906 266.013C698.605 267.632 699.273 269.264 699.971 270.885C700.033 271.045 700.214 271.119 700.375 271.058C700.535 270.996 700.616 270.823 700.556 270.662C700.533 270.594 700.512 270.525 700.49 270.457C700.494 270.435 700.515 270.422 700.514 270.399C700.731 269.506 700.955 268.612 701.165 267.716C701.241 267.391 701.327 267.068 701.37 266.737C701.43 266.282 701.399 265.819 701.387 265.362C701.376 264.939 701.367 264.511 701.362 264.087C701.357 263.454 701.344 262.826 701.305 262.194C701.27 261.646 701.217 261.097 701.198 260.548C701.172 259.829 701.224 259.109 701.189 258.392C701.165 257.897 701.078 257.407 701.074 256.91C701.072 256.574 701.099 256.243 701.091 255.906C701.077 255.347 701.07 254.794 701.115 254.236C701.12 254.18 701.134 254.126 701.14 254.071C701.526 254.803 701.901 255.54 702.292 256.268C704.593 260.557 707.035 264.761 709.633 268.877C711.294 271.508 713.007 274.113 714.719 276.711C716.161 278.9 717.597 281.089 719.097 283.238C720.578 285.358 722.147 287.413 723.673 289.501C724.779 291.014 725.852 292.548 726.982 294.043C728.192 295.645 729.433 297.228 730.66 298.817C734.802 304.181 738.998 309.501 743.285 314.75C743.392 314.884 743.594 314.906 743.729 314.799C743.864 314.692 743.885 314.489 743.779 314.355C743.746 314.313 743.712 314.273 743.68 314.231C743.67 314.21 743.678 314.184 743.663 314.165C742.907 313.175 742.385 312.028 741.911 310.882C741.39 309.624 740.951 308.335 740.536 307.038C739.96 305.236 739.444 303.409 738.981 301.574C738.769 300.734 738.579 299.888 738.372 299.047C738.092 297.913 737.782 296.787 737.524 295.648C737.315 294.725 737.147 293.794 736.956 292.867C736.368 289.998 735.625 287.167 735.03 284.299C734.804 283.206 734.593 282.111 734.38 281.016C734.899 282.213 735.394 283.421 735.944 284.604C737.396 287.722 738.932 290.805 740.586 293.821C742.459 297.236 744.476 300.561 746.569 303.845C749.094 307.808 751.688 311.74 754.477 315.523C755.851 317.387 757.317 319.175 758.765 320.98C760.126 322.675 761.474 324.39 762.88 326.049C764.435 327.885 766.066 329.661 767.695 331.432C770.856 334.871 774.151 338.186 777.579 341.357C777.581 341.359 777.584 341.362 777.587 341.365C779.667 343.458 781.845 345.457 784.113 347.356C784.503 347.691 785.095 347.647 785.43 347.258C785.765 346.868 785.72 346.276 785.331 345.941C780.879 342.007 776.786 337.691 773.184 332.962C765.516 322.898 760.16 311.266 756.551 299.179C755.457 295.512 754.514 291.802 753.712 288.06C753.341 286.328 753.015 284.586 752.659 282.851C751.548 277.445 750.548 272.006 749.844 266.531C749.132 260.995 748.643 255.432 748.058 249.882C747.508 244.661 746.886 239.449 746.256 234.237C745.652 229.238 745.037 224.24 744.355 219.251C741.888 201.22 738.6 182.752 729.335 166.81C728.349 165.114 727.285 163.463 726.159 161.856C722.298 156.347 717.613 151.33 712.02 147.552C709.243 145.677 706.224 144.044 703.049 142.952C702.13 142.636 701.181 142.39 700.235 142.17C698.148 141.685 696.025 141.411 693.889 141.372ZM691.1 167.205C691.011 167.172 690.912 167.179 690.82 167.222C690.634 167.306 690.554 167.522 690.639 167.707C691.294 169.51 691.934 171.316 692.581 173.123C693.426 175.481 694.298 177.843 695.371 180.11C696.041 181.525 696.843 182.861 697.626 184.216C698.388 185.535 699.138 186.862 699.881 188.191C699.907 189.753 699.938 191.313 699.947 192.874C699.95 193.485 699.94 194.099 699.947 194.709C699.956 195.552 699.981 196.393 699.996 197.236C699.343 196.264 698.72 195.267 698.128 194.257C696.65 191.736 695.277 189.153 693.75 186.661C692.986 185.415 692.159 184.201 691.305 183.015C689.595 180.633 687.16 178.683 686.046 175.912C686.006 175.778 685.861 175.7 685.725 175.74C685.591 175.78 685.521 175.925 685.561 176.061C685.908 177.772 686.734 179.29 687.61 180.784C688.217 181.82 688.822 182.865 689.478 183.871C689.889 184.502 690.343 185.112 690.77 185.731C691.197 186.346 691.628 186.958 692.03 187.591C692.775 188.764 693.455 189.98 694.186 191.162C695.009 192.496 695.876 193.801 696.721 195.121C697.017 195.584 697.312 196.049 697.609 196.512C697.812 196.828 698.019 197.137 698.227 197.45C698.418 197.739 698.604 198.029 698.803 198.314C698.967 198.549 699.135 198.779 699.313 199.005C699.431 199.157 699.488 199.231 699.609 199.376C699.954 199.785 700.663 200.418 701.214 199.927C701.262 199.885 701.308 199.84 701.346 199.787C701.541 199.494 701.479 199.214 701.444 198.882C701.423 198.668 701.399 198.454 701.379 198.24C701.273 197.189 701.215 196.142 701.148 195.088C701.08 194.018 700.955 192.947 700.868 191.878C700.809 191.138 700.766 190.397 700.712 189.656C701.753 191.524 702.788 193.397 703.864 195.244C704.91 197.039 705.985 198.813 707.041 200.602C708.236 202.627 709.397 204.679 710.637 206.676C711.617 208.252 712.686 209.771 713.699 211.325C714.539 212.612 715.329 213.947 716.275 215.16C716.449 215.384 716.634 215.595 716.818 215.811C717.175 216.232 717.625 216.773 718.167 216.955C718.276 216.991 718.505 217.047 718.62 217.012C718.79 216.96 718.962 216.884 719.106 216.782C719.181 216.728 719.216 216.631 719.262 216.551C719.355 216.387 719.364 216.168 719.377 215.983C719.433 215.185 719.391 214.37 719.361 213.572C719.351 213.311 719.339 213.052 719.328 212.79C719.286 211.796 719.229 210.805 719.196 209.811C719.171 209.031 719.172 208.246 719.147 207.466C719.105 206.109 719.031 204.75 719.015 203.392C719.01 202.966 719.033 202.542 719.04 202.116C719.708 203.693 720.35 205.285 721.081 206.832C721.61 207.95 722.202 209.046 722.793 210.132C723.556 211.535 724.35 212.919 725.212 214.263C725.691 215.011 726.194 215.73 726.71 216.453C726.868 216.673 727.035 216.986 727.187 217.234C727.473 217.701 727.762 218.173 728.093 218.609C728.446 219.074 728.957 219.675 729.623 219.555C730.769 219.349 730.979 217.821 731.072 216.881C731.18 215.796 731.165 214.701 731.138 213.613C731.101 212.11 731.008 210.614 730.94 209.112C730.912 208.487 730.919 207.86 730.899 207.235C730.861 206.053 730.779 204.872 730.644 203.696C730.475 202.23 730.191 200.783 729.87 199.343C729.56 197.946 729.241 196.55 728.833 195.178C728.369 193.617 727.78 192.083 727.179 190.57C725.477 186.285 723.361 182.19 721.18 178.134C721.148 178.075 721.091 178.03 721.031 178.011C720.972 177.992 720.911 177.996 720.85 178.027C720.731 178.09 720.681 178.237 720.743 178.357C722.46 181.77 724.137 185.213 725.525 188.776C726.343 190.876 727.044 193.007 727.615 195.187C727.859 196.118 728.112 197.052 728.315 197.993C728.755 200.033 728.967 202.112 729.13 204.19C729.21 205.22 729.273 206.252 729.302 207.285C729.319 207.869 729.308 208.454 729.327 209.037C729.373 210.475 729.441 211.911 729.434 213.35C729.429 214.387 729.405 215.43 729.286 216.461C729.271 216.593 729.24 216.724 729.22 216.856C729.004 216.512 728.791 216.162 728.586 215.811C728.317 215.349 728.002 214.935 727.698 214.494C727.117 213.65 726.566 212.782 726.043 211.901C724.893 209.966 723.903 207.943 722.875 205.943C722.153 204.538 721.365 203.166 720.595 201.787C719.053 199.025 717.444 196.312 715.624 193.722C715.55 193.602 715.39 193.565 715.271 193.639C715.151 193.714 715.115 193.874 715.188 193.993C716.346 196.119 717.361 198.306 718.332 200.52C718.263 201.476 718.194 202.433 718.167 203.392C718.13 204.753 718.154 206.112 718.135 207.474C718.123 208.255 718.08 209.038 718.069 209.819C718.057 210.687 718.07 211.553 718.06 212.42C718.053 213.171 718.037 213.924 718.003 214.675C717.611 214.131 717.237 213.575 716.875 213.012C716.32 212.147 715.778 211.27 715.279 210.371C714.787 209.485 714.328 208.583 713.839 207.696C713.208 206.556 712.555 205.43 711.896 204.305C710.897 202.596 709.907 200.875 708.958 199.137C708.019 197.416 707.13 195.671 706.218 193.936C705.035 191.688 703.818 189.459 702.588 187.237C701.489 185.249 700.392 183.262 699.272 181.286C699.02 180.843 698.782 180.394 698.523 179.953C698.136 179.291 697.716 178.647 697.313 177.995C696.716 177.028 696.123 176.059 695.56 175.073C694.11 172.535 692.729 169.956 691.305 167.403C691.263 167.31 691.188 167.239 691.1 167.205Z" fill="#ffffff" fill-rule="nonzero" opacity="1" stroke="none"/>
    <path d="M147.714 130.664C148.424 130.651 149.137 130.666 149.849 130.705C152.022 130.825 154.181 131.208 156.27 131.824C159 132.631 161.596 133.855 163.98 135.413C167.112 137.459 169.848 140.068 172.166 143.001C176.917 149.011 179.916 156.212 181.954 163.55C182.125 164.057 181.852 164.605 181.346 164.777C180.84 164.948 180.294 164.675 180.123 164.168C177.526 157.654 174.119 151.317 169.235 146.227C166.994 143.891 164.432 141.837 161.574 140.309C159.552 139.228 157.384 138.419 155.136 137.964C151.562 137.24 147.876 137.461 144.355 138.367C143.251 138.651 142.18 139.025 141.112 139.421C139.868 139.881 138.658 140.391 137.474 140.992C134.054 142.732 130.953 145.071 128.18 147.716C123.405 152.27 119.618 157.788 116.635 163.657C113.036 170.738 110.493 178.334 108.415 185.985C105.605 196.331 103.794 206.908 102.339 217.522C101.564 223.176 100.941 228.85 100.196 234.508C99.7218 238.111 99.2084 241.708 98.6361 245.297C98.0359 249.061 97.339 252.813 96.6654 256.564C95.8762 260.958 95.1155 265.356 94.1857 269.724C93.9114 271.011 93.6379 272.304 93.3235 273.583C92.3845 277.401 91.2971 281.18 90.1294 284.932C87.4387 293.578 84.0675 302.041 79.6603 309.959C77.9455 313.04 76.0527 316.022 74.0193 318.905C75.2135 317.486 76.4 316.065 77.55 314.609C78.8846 312.918 80.2348 311.249 81.5242 309.523C82.8964 307.686 84.1859 305.79 85.4983 303.91C87.8706 300.513 90.213 297.097 92.3956 293.574C95.2145 289.023 97.7997 284.323 100.237 279.558C101.816 276.471 103.321 273.344 104.696 270.16C105.615 268.03 106.447 265.872 107.299 263.716C108.265 261.269 109.258 258.832 110.132 256.35C110.136 256.336 110.143 256.323 110.148 256.309C110.194 256.07 110.233 255.831 110.288 255.593C110.651 253.999 111.143 252.426 111.585 250.853C112.265 248.434 112.935 246.009 113.654 243.602C113.698 243.382 113.751 243.164 113.794 242.944C113.819 242.767 113.987 242.638 114.163 242.664C114.34 242.69 114.46 242.857 114.434 243.034C114.27 244.702 114.041 246.361 113.785 248.013C113.641 249.284 113.494 250.554 113.342 251.824C113.172 253.248 113.025 254.682 112.776 256.095C112.65 256.806 112.486 257.511 112.34 258.218C112.001 259.855 111.644 261.496 111.298 263.131C110.871 265.14 110.428 267.142 109.951 269.139C109.492 271.06 108.996 272.974 108.522 274.892C107.984 277.071 107.502 279.262 106.905 281.426C106.506 282.869 106.04 284.293 105.624 285.731C105.334 286.731 105.074 287.746 104.77 288.743C104.481 289.692 104.153 290.623 103.842 291.565C103.187 293.552 102.517 295.539 101.764 297.491C101.419 298.389 101.019 299.264 100.623 300.141C103.458 296.436 106.261 292.707 108.982 288.915C110.566 286.708 112.088 284.459 113.646 282.233C114.771 280.623 115.921 279.031 117.021 277.402C118.193 275.664 119.298 273.884 120.453 272.135C122.686 268.751 124.94 265.383 127.079 261.938C129.553 257.954 131.891 253.877 134.19 249.791C135.822 246.89 137.404 243.962 138.895 240.985C139.809 239.159 140.668 237.314 141.547 235.471C142.604 233.255 143.713 231.062 144.717 228.821C146.471 224.904 147.996 220.892 149.126 216.748C149.164 216.573 149.338 216.462 149.512 216.501C149.686 216.54 149.797 216.713 149.758 216.888C149.009 221.355 147.822 225.725 146.351 230.006C145.595 232.207 144.806 234.416 143.854 236.541C143.029 238.387 142.12 240.198 141.194 241.997C141.273 242.267 141.339 242.541 141.416 242.812C141.625 243.553 141.819 244.304 141.974 245.059C142.058 245.466 142.072 245.883 142.138 246.293C142.222 246.814 142.363 247.321 142.409 247.849C142.486 248.71 142.485 249.58 142.565 250.441C142.621 251.029 142.679 251.612 142.705 252.202C142.735 252.877 142.727 253.551 142.738 254.227C142.74 254.354 142.725 254.484 142.73 254.614C142.931 253.879 143.126 253.142 143.354 252.416C143.448 252.113 143.564 251.82 143.666 251.519C143.954 250.656 144.145 249.764 144.462 248.91C144.842 247.886 145.325 246.9 145.776 245.906C146.19 244.994 146.597 244.072 147.057 243.182C147.507 242.311 148.004 241.468 148.502 240.623C148.888 239.967 149.271 239.313 149.668 238.664C149.793 238.46 149.973 238.158 150.111 237.965C150.547 237.356 151.075 236.809 151.573 236.253C152.374 235.358 153.195 234.475 154.012 233.595C154.06 233.52 154.136 233.472 154.217 233.455C154.298 233.437 154.381 233.455 154.455 233.504C154.605 233.602 154.651 233.798 154.553 233.948C154.083 235.05 153.62 236.155 153.149 237.257C152.858 237.939 152.599 238.652 152.246 239.306C151.819 240.098 151.285 240.838 150.809 241.602C150.242 242.514 149.701 243.45 149.142 244.367C148.558 245.327 147.95 246.269 147.426 247.264C147.012 248.053 146.664 248.87 146.285 249.676C145.972 250.338 145.605 250.977 145.3 251.643C145.104 252.067 144.955 252.504 144.774 252.935C144.439 253.731 144.049 254.511 143.707 255.305C143.009 256.925 142.342 258.556 141.646 260.177C141.585 260.337 141.403 260.411 141.243 260.35C141.083 260.288 141.002 260.115 141.063 259.955C141.085 259.886 141.106 259.817 141.128 259.749C141.124 259.728 141.103 259.714 141.104 259.691C140.887 258.798 140.664 257.904 140.455 257.008C140.379 256.683 140.293 256.36 140.25 256.029C140.191 255.574 140.221 255.111 140.233 254.655C140.245 254.231 140.253 253.803 140.258 253.379C140.263 252.746 140.276 252.118 140.315 251.486C140.35 250.938 140.403 250.39 140.422 249.84C140.448 249.122 140.395 248.402 140.43 247.684C140.455 247.189 140.542 246.699 140.545 246.203C140.547 245.866 140.521 245.535 140.529 245.199C140.542 244.639 140.55 244.086 140.504 243.528C140.5 243.473 140.485 243.419 140.48 243.363C140.095 244.095 139.72 244.832 139.33 245.561C137.035 249.849 134.598 254.053 132.006 258.169C130.349 260.8 128.639 263.405 126.931 266.004C125.493 268.192 124.06 270.381 122.563 272.53C121.086 274.65 119.521 276.705 117.998 278.793C116.894 280.306 115.824 281.84 114.697 283.336C113.489 284.937 112.251 286.52 111.027 288.109C106.894 293.473 102.708 298.793 98.4308 304.042C98.324 304.176 98.1222 304.198 97.9874 304.091C97.8533 303.984 97.832 303.781 97.9381 303.647C97.9704 303.605 98.0044 303.565 98.0366 303.523C98.0466 303.502 98.0383 303.477 98.0531 303.458C98.8076 302.467 99.3285 301.32 99.802 300.174C100.321 298.916 100.759 297.627 101.173 296.331C101.748 294.528 102.263 292.701 102.725 290.866C102.936 290.026 103.126 289.18 103.333 288.339C103.612 287.206 103.922 286.08 104.179 284.94C104.387 284.017 104.555 283.086 104.745 282.159C105.332 279.291 106.073 276.459 106.666 273.592C106.893 272.499 107.103 271.403 107.315 270.308C106.797 271.505 106.304 272.714 105.755 273.896C104.306 277.014 102.774 280.097 101.124 283.113C99.2552 286.529 97.2428 289.853 95.1546 293.137C92.6347 297.1 90.0464 301.032 87.2637 304.816C85.8931 306.679 84.431 308.467 82.9857 310.272C81.6279 311.967 80.2827 313.683 78.8802 315.341C77.3287 317.177 75.7012 318.953 74.0767 320.724C70.9225 324.163 67.6354 327.478 64.2152 330.649C64.2124 330.652 64.2099 330.655 64.207 330.657C62.1317 332.751 59.9585 334.749 57.6956 336.649C57.3071 336.984 56.7157 336.939 56.3819 336.55C56.0476 336.16 56.0921 335.568 56.4804 335.233C60.9228 331.299 65.0058 326.983 68.5999 322.255C76.25 312.19 81.5945 300.558 85.1945 288.471C86.2867 284.805 87.2278 281.094 88.0273 277.353C88.3976 275.62 88.7225 273.878 89.0784 272.143C90.1868 266.738 91.1841 261.298 91.8866 255.823C92.5971 250.287 93.0852 244.725 93.6684 239.174C94.2168 233.953 94.8383 228.742 95.4666 223.529C96.0692 218.531 96.6824 213.532 97.3633 208.543C99.8247 190.512 103.105 172.044 112.349 156.102C113.332 154.406 114.395 152.755 115.518 151.148C119.369 145.639 124.044 140.623 129.625 136.845C132.395 134.969 135.407 133.336 138.575 132.244C139.492 131.928 140.439 131.682 141.383 131.462C143.465 130.977 145.583 130.703 147.714 130.664ZM150.497 156.497C150.586 156.464 150.684 156.472 150.776 156.514C150.961 156.599 151.041 156.814 150.957 156.999C150.303 158.802 149.665 160.609 149.019 162.415C148.176 164.773 147.306 167.135 146.236 169.402C145.567 170.817 144.767 172.153 143.986 173.509C143.226 174.827 142.477 176.154 141.736 177.484C141.71 179.045 141.679 180.605 141.67 182.166C141.667 182.777 141.677 183.391 141.67 184.002C141.661 184.845 141.636 185.686 141.621 186.528C142.273 185.556 142.894 184.559 143.485 183.549C144.959 181.028 146.329 178.445 147.853 175.953C148.615 174.708 149.44 173.493 150.292 172.307C151.999 169.925 154.427 167.975 155.539 165.205C155.579 165.07 155.724 164.992 155.859 165.032C155.994 165.072 156.063 165.218 156.023 165.353C155.677 167.064 154.853 168.582 153.979 170.077C153.373 171.113 152.769 172.157 152.115 173.163C151.705 173.794 151.252 174.404 150.826 175.023C150.4 175.638 149.97 176.25 149.569 176.883C148.826 178.056 148.147 179.272 147.418 180.455C146.596 181.789 145.731 183.093 144.889 184.413C144.593 184.876 144.299 185.342 144.002 185.804C143.8 186.12 143.594 186.429 143.386 186.742C143.196 187.031 143.01 187.322 142.812 187.606C142.648 187.842 142.48 188.072 142.303 188.298C142.184 188.45 142.128 188.523 142.007 188.668C141.663 189.078 140.956 189.71 140.406 189.219C140.358 189.177 140.312 189.132 140.274 189.079C140.08 188.786 140.142 188.507 140.176 188.174C140.197 187.96 140.221 187.746 140.242 187.532C140.347 186.481 140.405 185.434 140.471 184.38C140.54 183.311 140.665 182.239 140.751 181.171C140.81 180.43 140.853 179.689 140.907 178.948C139.868 180.816 138.835 182.689 137.762 184.537C136.718 186.331 135.646 188.105 134.592 189.894C133.4 191.919 132.242 193.971 131.004 195.968C130.026 197.545 128.96 199.063 127.95 200.618C127.111 201.904 126.323 203.239 125.38 204.453C125.206 204.676 125.021 204.887 124.838 205.103C124.481 205.525 124.032 206.065 123.491 206.247C123.382 206.283 123.154 206.339 123.039 206.304C122.87 206.252 122.698 206.177 122.555 206.074C122.48 206.02 122.445 205.924 122.399 205.844C122.306 205.679 122.297 205.46 122.284 205.276C122.229 204.477 122.271 203.662 122.3 202.864C122.31 202.603 122.322 202.344 122.333 202.083C122.375 201.088 122.432 200.098 122.465 199.103C122.49 198.323 122.489 197.538 122.514 196.758C122.556 195.401 122.629 194.042 122.645 192.684C122.65 192.258 122.627 191.834 122.621 191.408C121.954 192.985 121.314 194.577 120.584 196.124C120.057 197.242 119.466 198.338 118.876 199.424C118.115 200.827 117.323 202.211 116.462 203.556C115.984 204.303 115.483 205.022 114.968 205.745C114.811 205.966 114.644 206.278 114.492 206.527C114.207 206.993 113.918 207.465 113.588 207.901C113.236 208.367 112.726 208.967 112.061 208.847C110.918 208.641 110.709 207.113 110.616 206.173C110.509 205.089 110.524 203.994 110.55 202.905C110.587 201.402 110.68 199.906 110.747 198.404C110.776 197.78 110.768 197.152 110.788 196.527C110.826 195.345 110.908 194.164 111.043 192.989C111.212 191.522 111.495 190.075 111.815 188.635C112.125 187.239 112.442 185.843 112.849 184.471C113.313 182.909 113.9 181.375 114.5 179.862C116.198 175.578 118.309 171.482 120.486 167.427C120.517 167.367 120.574 167.322 120.634 167.303C120.693 167.284 120.754 167.289 120.814 167.32C120.934 167.382 120.983 167.529 120.921 167.649C119.208 171.062 117.535 174.505 116.15 178.068C115.334 180.168 114.635 182.299 114.065 184.479C113.821 185.41 113.569 186.344 113.367 187.285C112.927 189.325 112.716 191.404 112.554 193.482C112.473 194.512 112.411 195.544 112.381 196.577C112.365 197.161 112.376 197.746 112.357 198.33C112.311 199.767 112.243 201.203 112.25 202.642C112.255 203.68 112.279 204.722 112.398 205.753C112.413 205.885 112.444 206.016 112.464 206.148C112.68 205.804 112.891 205.454 113.096 205.103C113.364 204.641 113.679 204.228 113.983 203.786C114.562 202.943 115.111 202.074 115.633 201.194C116.78 199.258 117.768 197.236 118.794 195.235C119.515 193.83 120.301 192.458 121.069 191.079C122.608 188.317 124.213 185.604 126.028 183.014C126.102 182.894 126.262 182.857 126.381 182.932C126.501 183.006 126.537 183.166 126.463 183.286C125.308 185.412 124.295 187.598 123.327 189.812C123.396 190.768 123.464 191.725 123.491 192.684C123.529 194.046 123.505 195.404 123.524 196.766C123.535 197.547 123.578 198.33 123.59 199.112C123.601 199.979 123.589 200.845 123.598 201.712C123.606 202.463 123.621 203.216 123.655 203.967C124.046 203.423 124.419 202.867 124.78 202.305C125.335 201.439 125.875 200.562 126.373 199.663C126.863 198.777 127.322 197.875 127.81 196.988C128.439 195.848 129.091 194.722 129.748 193.598C130.745 191.889 131.733 190.167 132.679 188.429C133.617 186.708 134.503 184.963 135.413 183.228C136.594 180.98 137.807 178.751 139.035 176.529C140.132 174.542 141.226 172.554 142.344 170.579C142.595 170.135 142.832 169.686 143.091 169.245C143.477 168.583 143.896 167.939 144.298 167.287C144.893 166.321 145.485 165.351 146.047 164.365C147.494 161.827 148.872 159.248 150.292 156.695C150.334 156.602 150.409 156.531 150.497 156.497Z" fill="#ffffff" fill-rule="nonzero" opacity="1" stroke="none"/>
  </g>
</svg>